<svg width="330" height="205" viewBox="0 0 330 205" fill="none" xmlns="http://www.w3.org/2000/svg">
    <path d="M62.573 85.745c1.15-1.113 1.886-2.26 2.12-3.785.212-1.414.524-2.84 1.138-4.175.245-.546.524-1.07.836-1.57 1.808-2.906 3.771-5.69 6.727-7.616.949-.612 1.92-1.158 3.001-1.436 1.585-.4 3.18-.746 4.775-1.069 1.038-.212 2.075.011 3.09.234 1.194.256 2.388.545 3.582.824.948.222 1.84.623 2.644 1.158 1.796 1.202 3.558 2.438 4.819 4.253.078.111.212.2.368.356.413-.568.815-1.091 1.194-1.637 1.171-1.703 2.767-2.983 4.663-3.663 2.254-.801 4.585-1.48 7.073-1.013 1.082.2 2.187.123 3.28-.311 1.127-.435 2.365-.624 3.559-.902.212-.045.446-.056.669-.023 3.414.501 6.56 1.57 9.003 4.175.324.346.513.813 1.015 1.136.413-1.002.815-1.982 1.227-2.95 1.183-2.85 2.745-5.5 4.251-8.184 2.053-3.652 4.083-7.326 6.192-10.944 1.093-1.87 2.42-3.552 4.35-4.676.29-.167.581-.323.904-.401.87-.19 1.729-.401 2.599-.613a3.648 3.648 0 0 1 1.663 0c.401.09.792.223 1.182.301 2.421.423 4.15 1.848 5.522 3.797.324.456.581.946.703 1.503.313 1.436.87 2.85.603 4.375-.268 1.492-.603 2.973-1.082 4.42a25.988 25.988 0 0 1-.926 2.383c-.257.59-.168.98.29 1.47 1.272 1.347 2.398 2.817 3.257 4.487.636 1.236.748 2.627 1.105 3.941a8.015 8.015 0 0 1 .056 4.075c-.257 1.08-.424 2.193-.781 3.24-.625 1.86-1.797 3.396-3.303 4.654-.613.523-1.316.957-2.086 1.503.948.256 1.785.501 2.622.69 3.849.902 6.839 3.151 9.449 5.98.591.634.569.656 1.16.1 1.93-1.815 4.061-3.363 6.404-4.588 1.796-.946 3.771-1.325 5.712-1.814 2.209-.568 4.462-.869 6.727-.646 2.142.211 4.25.668 6.348 1.135 3.135.702 5.991 1.938 8.534 3.908.223.178.435.412.77.423.335-.2.513-.545.692-.857a7.049 7.049 0 0 1 3.045-2.705c1.707-.78 3.481-1.247 5.489-.913 2.934.478 5.054 2.237 7.173 4.03 2.209 1.87 4.251 3.93 6.192 6.08.703.778.736.767 1.506-.012 1.897-1.937 3.804-3.863 5.678-5.823 1.083-1.136 2.354-2.049 3.626-2.95.368-.268.792-.401 1.227-.524.324-.089.659-.122.971-.245 2.164-.868 4.262-.311 6.303.379 1.372.468 2.521 1.392 3.414 2.594.368.49.591 1.303 1.194 1.37.535.055.948-.635 1.416-.991 1.875-1.414 3.782-2.773 6.08-3.43a50.107 50.107 0 0 1 5.969-1.313c3.291-.513 6.493.1 9.706.757 4.618.935 8.512 3.195 11.937 6.268.223.011.323-.089.413-.2 1.294-1.782 3.09-2.984 4.875-4.187 1.405-.946 2.99-1.447 4.618-1.87 2.455-.646 4.909-1.17 7.475-1.002 2.175.133 4.239.712 6.314 1.28 5.355 1.47 9.226 4.788 11.803 9.642.77 1.448 1.161 3.106 1.216 4.699.079 1.959-.334 3.908-1.506 5.589-.513.735-.546.779.067 1.492 1.986 2.282 2.533 5.032 2.667 7.938.122 2.728-.246 5.389-.971 8.028a9.21 9.21 0 0 1-1.227 2.716c-.48.713-.993 1.392-1.495 2.082-.502.679-.524.702.268 1.114 1.818.957 3.514 2.104 5.02 3.485 3.191 2.928 5.69 6.346 6.761 10.632.133.535.245 1.08.379 1.626.234.957.189 1.893 0 2.861-.391 1.993-.993 3.853-2.343 5.445-.558.657-1.283 1.091-1.93 1.714a37.341 37.341 0 0 1 2.722 3.263c1.428 1.948 2.354 4.097 2.945 6.424.681 2.661.96 5.333.513 8.039-.702 4.253-1.963 8.283-4.886 11.623-3.503 3.997-7.631 7.015-12.818 8.44-1.919.534-1.919.534-1.919 2.572 0 2.894-.056 5.789.022 8.684.045 1.848-1.015 2.906-2.945 2.906-46.554-.022-93.12-.022-139.674-.022-.301 0-.602.011-.893-.034-1.26-.2-1.963-1.002-1.985-2.282-.023-1.782-.011-3.563-.011-5.344v-6.235c0-.368.055-.735-.067-1.091-.145-.09-.29-.067-.424 0-2.075.968-4.318 1.402-6.538 1.77-1.93.323-3.927.334-5.868-.111-.647-.156-1.294-.323-1.952-.457-2.287-.468-4.117-1.648-5.478-3.529-.357-.501-.613-.457-1.071-.145a27.256 27.256 0 0 1-8.378 3.796c-2.153.557-4.317 1.147-6.526 1.359-2.399.223-4.831.245-7.218-.156-2.31-.39-4.574-.935-6.839-1.514-4.228-1.102-8.055-2.984-11.547-5.601-2.342-1.759-4.384-3.774-6.09-6.145-.692-.969-.726-.969-1.451.011-3.068 4.119-7.129 7.003-11.67 9.263-3.893 1.937-8.065 2.939-12.293 3.819-2.142.445-4.273.456-6.426.412-.826-.022-1.607-.267-2.41-.423-4.094-.835-8.043-2.082-11.836-3.819-1.228-.557-2.332-1.314-3.403-2.116-1.06-.79-.982-.69-1.584.234-.837 1.292-1.863 2.383-3.169 3.229-.725.479-1.461.846-2.298 1.069-1.985.534-3.994.757-6.057.735-4.653-.056-9.294.033-13.946-.034-3.19-.055-6.38-.222-9.56-.456-1.663-.123-3.358-.457-4.842-1.18-2.287-1.125-4.005-2.839-4.675-5.478-.658-2.583-.68-5.211-.792-7.827-.267-5.846-.345-11.635-.178-17.414.212-7.715.078-15.431.167-23.136.023-1.937.491-3.819 1.094-5.656.334-1.024 1.06-1.904 1.83-2.627 1.148-1.103 2.453-1.971 4.06-2.427 3.09-.88 6.236-1.025 9.393-.836 2.633.156 5.233.702 7.363 2.494 1.707 1.448 2.98 3.129 3.604 5.345.602 2.137.725 4.308.758 6.491.079 6.903.067 13.806.1 20.709.012 1.625.101 3.262.135 4.887.01.49.122.769.68.769 1.328-.023 2.667-.011 4.083-.011-.19-1.236-.334-2.472-.557-3.686-.681-3.629-.38-7.237.368-10.811.58-2.794 1.294-5.556 2.588-8.139 1.64-3.273 3.67-6.312 6.236-8.896 2.689-2.705 5.857-4.787 9.405-6.234.758-.312.747-.301.546-1.069a175.029 175.029 0 0 1-2.153-9.876c-.357-1.893-.803-3.763-1.149-5.656a367.594 367.594 0 0 1-1.774-10.399c-.435-2.817-.981-5.611-1.483-8.417-.67-3.719-1.328-7.438-2.008-11.145-.86-4.699-1.752-9.386-2.6-14.085-.825-4.52-1.662-9.03-2.376-13.56-.502-3.218-1.183-6.403-1.674-9.62-.546-3.552-1.249-7.07-1.584-10.644-.2-2.194.223-4.287 1.696-6.035.814-.98 1.807-1.703 3.09-2.048 2.075-.546 4.206-.891 6.259-1.548 3.626-1.158 7.05-2.761 10.408-4.52 4.206-2.216 8.379-4.487 12.584-6.703 4.786-2.538 9.517-5.2 14.425-7.504a77.766 77.766 0 0 1 8.68-3.452C93.52.827 94.78.538 96.042.237c1.06-.256 2.108-.323 3.201-.111 2.019.4 3.983.88 5.578 2.305 1.607 1.425 2.968 2.995 3.47 5.166a364.409 364.409 0 0 1 2.9 13.806c.815 4.253 1.439 8.54 2.165 12.804.133.801.145 1.625-.09 2.427-.145.5-.234 1.013-.334 1.514-.391 1.948-1.506 3.396-3.024 4.632-1.628 1.325-3.536 2.048-5.466 2.672-5.243 1.715-10.197 4.075-15.016 6.725-4.753 2.605-9.494 5.244-14.28 7.782-5.087 2.695-10.286 5.177-15.652 7.282-.535.211-.703.412-.591 1.035.502 2.884 1.194 5.723 1.751 8.596.525 2.694 1.138 5.355 1.718 8.038.023.223.1.468.201.835z" fill="#F7E85D"/>
    <path d="M65.808 104.517c-2.621-2.55-5.321-5.066-8.378-7.448-.111.912.145 1.58.234 2.248.982 6.859 2.176 13.684 3.437 20.509.178.946.312 1.904.279 2.873-.034.946-.402 1.347-1.328 1.458-1.049.123-1.473-.133-1.673-1.147-1.005-4.976-2.142-9.92-3.002-14.93-1.372-7.927-2.655-15.866-4.138-23.77a2739.169 2739.169 0 0 1-4.943-27.012c-1.182-6.647-2.253-13.305-3.346-19.952-.28-1.68-.413-3.384-.647-5.076-.067-.457.055-.68.535-.769a74.46 74.46 0 0 0 3.48-.757c4.809-1.147 9.26-3.173 13.6-5.467 7.91-4.175 15.797-8.406 23.707-12.592a75.629 75.629 0 0 1 12.204-5.122c.603-.189 1.194-.378 1.841-.39 2.008-.033 3.447.98 3.905 2.94.558 2.338 1.048 4.699 1.528 7.059 1.16 5.7 2.12 11.445 3.012 17.19.302 1.971-.078 2.706-1.963 3.43-2.488.968-5.01 1.86-7.508 2.817-4.518 1.725-8.735 4.097-12.975 6.39-5.477 2.973-10.888 6.09-16.488 8.84-3.805 1.86-7.653 3.608-11.592 5.145-.859.334-1.706.723-2.532 1.135-1.629.802-2.097 1.704-1.852 3.507.29 2.172.703 4.32 1.16 6.458 1.16 5.433 2.343 10.867 3.448 16.311.29 1.448.981 2.516 2.153 3.363 2.142 1.547 4.373 2.939 6.626 4.308.826.501 1.674.958 2.421 1.593 1.138.957 1.584 2.004.357 3.317-.87.925-1.428 1.993-1.283 3.318-.01.123-.1.19-.279.223zM39.692 157.303c-.022-6.959 2.443-12.96 7.084-18.104 1.897-2.093 4.228-3.619 6.794-4.754 3.894-1.737 7.943-2.895 12.194-3.329 2.31-.245 4.596-.056 6.86.512a60.49 60.49 0 0 1 6.37 1.993c6.695 2.494 11.068 7.27 13.611 13.839 1.138 2.951 2.03 5.99 2.131 9.163.268 8.284-1.818 15.721-8.267 21.444-3.056 2.706-6.682 4.398-10.486 5.723-2.566.891-5.21 1.492-7.921 1.737-3.37.301-6.526-.657-9.695-1.67-4.462-1.436-8.166-3.841-11.3-7.382-4.887-5.533-7.353-11.857-7.375-19.172zM124.991 130.771c6.895.089 12.93 2.438 18.062 7.014 2.622 2.338 4.384 5.311 5.612 8.584.781 2.06.011 3.596-2.098 4.264-3.347 1.058-6.604.757-9.728-.835-1.696-.857-3.257-1.926-4.607-3.284-2.243-2.249-4.998-3.106-8.122-2.917-1.004.055-1.997.2-2.967.456-3.191.824-5.623 2.65-7.218 5.523-1.875 3.384-2.767 7.003-2.343 10.911a13.706 13.706 0 0 0 13.499 12.225c2.778.022 5.165-.858 7.285-2.583a30.52 30.52 0 0 0 3.079-2.906c1.684-1.826 3.748-2.695 6.236-2.695 1.528 0 3.046.045 4.563.134 1.941.123 2.822 1.136 2.644 3.062-.123 1.269-.525 2.46-1.038 3.618-3.123 7.026-8.579 11.312-15.886 13.339-4.931 1.369-9.862 1.013-14.748-.301-3.805-1.024-7.386-2.538-10.454-5.032-5.544-4.51-8.701-10.31-9.237-17.481-.156-1.993-.39-3.985-.19-5.99.848-8.172 4.162-14.997 10.855-20.007 3.068-2.294 6.582-3.541 10.275-4.353 2.153-.479 4.318-.769 6.526-.746zM300.432 131.171c3.949-.011 7.385.501 10.654 1.882 4.474 1.893 7.575 5.122 9.371 9.62.19.49.357.979.402 1.503.145 1.681-1.004 3.295-2.756 3.485-1.874.211-3.782.323-5.667.167-2.019-.167-3.804-1.025-5.355-2.283-2.555-2.082-5.444-2.572-8.601-1.993-2.555.468-4.24 3.029-3.738 5.567.223 1.125.859 1.86 1.863 2.327 1.629.757 3.381 1.114 5.132 1.425 3.068.546 6.192.824 9.215 1.581 2.7.679 5.232 1.726 7.33 3.597 2.789 2.482 4.384 5.544 4.462 9.341.156 7.003-3.235 12.002-9.237 15.053-8.144 4.142-16.422 4.164-24.488-.49a27.062 27.062 0 0 1-3.737-2.617c-1.919-1.569-3.258-3.54-4.072-5.867-.881-2.527.145-4.598 2.7-5.422 1.294-.412 2.633-.446 3.971-.345 2.923.222 5.456 1.436 7.743 3.139 3.625 2.695 7.407 2.405 11.278.757 1.373-.59 1.997-1.748 1.93-3.217-.066-1.425-.914-2.327-2.186-2.806-1.462-.557-3.012-.79-4.53-1.124-3.369-.746-6.816-1.147-10.152-2.016-3.659-.946-6.76-2.772-8.746-6.057-2.901-4.787-3.347-9.786-.647-14.808 2.811-5.232 7.04-8.74 12.986-9.942 1.729-.379 3.514-.434 4.875-.457zM200.92 182.098c-.034 1.391-.391 1.87-1.663 2.193-2.008.49-4.027.668-6.046.122a5.799 5.799 0 0 0-.759-.155c-2.454-.301-4.395-1.437-5.857-3.452-1.405-1.926-3.313-2.839-5.756-2.794-4.083.077-8.178.055-12.272.011-1.127-.011-2.008.289-2.756 1.124-.669.746-1.461 1.37-2.13 2.116-1.975 2.215-4.485 3.206-7.397 3.373-1.26.067-2.521.1-3.782-.145-.435-.089-.87-.189-1.283-.378-1.361-.59-1.863-1.603-1.539-3.062.123-.59.368-1.124.602-1.67 3.637-8.517 7.598-16.901 11.446-25.33 2.633-5.767 5.288-11.523 7.932-17.279.435-.947.904-1.871 1.573-2.684a7.725 7.725 0 0 1 3.102-2.293c1.037-.434 1.997-.323 2.956.301 1.718 1.113 2.845 2.694 3.682 4.498 2.354 5.077 4.685 10.165 7.028 15.242 3.135 6.836 6.258 13.683 9.405 20.52 1.238 2.694 2.242 5.477 3.302 8.25.167.534.212 1.046.212 1.492zM242.788 158.06c.079-6.792.145-13.584.235-20.364.011-1.002.134-2.004.156-2.995.045-1.47.803-2.583 2.767-2.706 1.405-.089 2.822-.144 4.228-.2 6.95-.234 13.9-.167 20.85.089 1.049.033 2.053.289 3.046.612 1.049.346 1.707 1.058 1.796 2.171.168 1.993.201 4.009.067 6.002-.1 1.48-1.071 2.36-2.61 2.605-.737.111-1.473.189-2.22.223-3.158.167-6.315.3-9.472.467-.669.034-1.339.1-1.986.223-1.472.289-2.376 1.214-2.566 2.694-.145 1.103-.156 2.216-.245 3.329-.034.457.1.691.602.657.447-.033.893-.011 1.339-.011h9.371c.591 0 1.183 0 1.774.1 2.778.501 4.462 2.316 4.752 5.122.19 1.77-.1 3.462-.78 5.11-.558 1.381-1.585 2.016-3.001 2.071a101.53 101.53 0 0 1-4.128.078c-1.975.011-3.938.056-5.902.189-2.119.145-3.715 1.403-4.339 3.407-.324 1.058-.246 2.049.468 2.951 1.06 1.347 2.365 2.193 4.161 2.204 2.789.011 5.578.089 8.356.179 1.372.044 2.745.2 4.117.3 1.06.078 1.785.624 2.242 1.581 1.35 2.761 1.406 5.567.29 8.406-.39 1.013-1.127 1.603-2.22 1.793-.814.144-1.629.111-2.443.122-7.999.123-15.987-.055-23.974-.423a9.53 9.53 0 0 1-2.622-.49c-.959-.334-1.54-1.013-1.685-2.026a15.78 15.78 0 0 1-.156-1.77c-.29-7.237-.245-14.474-.268-21.7z" fill="#010203"/>
    <path d="M80.088 119.247c.067.167.223.367.179.501-.078.29-.368.178-.558.134-.558-.156-.96-.546-1.361-.936-.424-.412-.781-1.124-1.26-1.213-.76-.145-.804-.702-1.094-1.136-.368-.568-.826-1.046-1.339-1.481-1.484-1.235-2.956-2.483-4.429-3.729-.937-.802-1.751-1.715-2.354-2.795-.87-1.592-.881-3.196-.033-4.777a29.68 29.68 0 0 1 1.383-2.282c.536-.802.558-1.581.045-2.394-.223-.345-.435-.69-.647-1.035-.837-1.325-.815-2.661.01-3.975.391-.635.782-1.258 1.027-1.97.067-.212.156-.424.201-.635.301-1.27.1-1.503-1.361-1.403.636-.869 1.194-1.681 1.807-2.45a5.274 5.274 0 0 0 1.16-2.95c.335-3.975 2.377-7.081 5.3-9.586 2.242-1.915 4.998-2.116 7.809-1.437 2.577.624 4.362 2.294 5.812 4.398 1.629 2.372 2.555 5.01 2.9 7.85.257 2.115.525 4.197 1.719 6.034.245.368.435.79.747 1.102 1.239 1.203 1.183 3.842-.1 5.2-.357.379-.725.757-1.026 1.169-.614.824-.547 1.347.245 2.015.335.29.714.546 1.082.78.926.567 1.194 1.358.892 2.382-.234.824-.568 1.604-.725 2.45-.133.779-.223 1.536-.01 2.304.234.835-.045 1.537-.681 2.105-.134.122-.268.267-.424.356-1.93 1.102-3.202 2.85-4.496 4.565l-.736.969c-.09.122-.257.3-.335.211-.736-.813-.915.156-1.205.423-.736.668-1.394 1.425-2.041 2.104-.358-.011-.413-.267-.547-.423-.223-.256-.435-.233-.658-.011-.134.134-.268.256-.402.379-.647.601-1.372.657-2.164.312-.725-.312-1.35-.78-2.008-1.192-.112-.022-.235-.089-.324.067z" fill="#7C5E16"/>
    <path d="M127.245 82.884c-.034.211-.089.69-.167 1.169-.279 1.692-.134 3.329.68 4.865.513.958.692 1.938.391 3.006-.134.468-.19.947-.313 1.414-.312 1.114-.346 2.172.279 3.218.357.601.279 1.292.112 1.949-.279 1.158-.558 2.304-.826 3.462-.156.679-.401 1.258-1.16 1.503-.636.201-.736.78-.781 1.348-.078.924-.145 1.848-.257 2.772-.122 1.024-.569 1.915-1.305 2.65-.647.657-1.439.935-2.343.601-2.978-1.125-5.767-.546-8.478.88-.826.434-1.618.924-2.41 1.391-.513.301-1.015.613-1.573.824-1.038.39-1.908.145-2.622-.657a6.204 6.204 0 0 1-.881-1.28c-.714-1.347-1.807-2.238-3.202-2.795-.312-.122-.613-.278-.926-.389-1.06-.401-1.461-1.192-1.383-2.272.045-.735.111-1.481.19-2.215.089-.891-.134-1.682-.737-2.372-1.048-1.191-1.428-2.572-1.182-4.13.134-.847-.023-1.637-.558-2.305-.982-1.203-1.071-2.472-.402-3.841.469-.947.469-1.938.145-2.929-.256-.779-.446-1.57-.558-2.382-.167-1.18.168-2.138 1.228-2.75.725-.423 1.082-.991.926-1.837-.145-.757.145-1.303.836-1.637 1.027-.49 1.618-1.347 1.763-2.416.39-2.739 2.934-4.22 5.678-3.975 1.328.111 2.644.367 3.994.156.96-.156 1.908-.345 2.778-.768 1.283-.635 2.51-.512 3.749.089 1.428.69 2.51 1.726 3.056 3.24.469 1.313 1.328 2.093 2.711 2.338.435.078.859.234 1.272.4 1.64.635 2.309 1.66 2.276 3.675z" fill="#352F1C"/>
    <path d="M21.285 152.493c0 3.707-.012 7.415.01 11.134.012 1.781.079 3.562.146 5.333.078 1.859 1.26 3.14 3.157 3.251 3.38.2 6.75.39 10.14.312.67-.012 1.34.011 1.998.122 1.762.301 2.856 1.325 3.347 3.017.502 1.726.368 3.452.033 5.178-.078.4-.156.801-.279 1.191-.446 1.347-1.573 2.227-2.99 2.26-7.43.2-14.87.278-22.29-.189-1.45-.089-2.9-.045-4.34-.267-1.851-.279-2.52-.958-2.576-2.851-.112-3.897-.19-7.782-.29-11.679-.1-3.641-.212-7.282-.056-10.911.312-7.159.056-14.307.167-21.455.011-.735.09-1.481.156-2.216.134-1.492.815-2.249 2.276-2.627.77-.201 1.55-.212 2.32-.257 1.74-.077 3.492-.289 5.222.023 2.209.401 3.458 1.803 3.57 4.041.055 1.114.044 2.227.044 3.341v13.238c.09.011.156.011.235.011zM221.737 184.402c-4.273-.089-8.546-.222-12.818-.256-2.187-.022-3.135-1.102-3.135-3.273-.011-2.672 0-5.344 0-8.016 0-4.821-.19-9.654.055-14.463.279-5.556.067-11.101.168-16.657.044-2.405.044-4.821-.023-7.237-.033-1.102.424-1.703 1.406-2.104 2.934-1.191 5.868-1.113 8.825-.156.792.256 1.428.791 1.985 1.403.424.457.514 1.036.525 1.648.078 3.407.212 6.814.279 10.232.089 4.342.156 8.673.234 13.015.056 3.04.123 6.079.167 9.119.011.557.078 1.113.212 1.648.435 1.77 1.573 2.817 3.358 3.14.848.155 1.696.167 2.555.133 2.488-.111 4.976-.211 7.463-.312.447-.022.893-.022 1.339-.011 1.785.034 3.18 1.036 3.615 2.739.535 2.071.647 4.164 0 6.246-.268.858-.703 1.626-1.194 2.372-.502.757-1.171 1.08-2.075 1.035-3.336-.178-6.683-.133-10.029-.189-.971-.011-1.93 0-2.901 0-.011-.011-.011-.033-.011-.056zM215.188 111.91c-.334 2.305-.223 4.453-.267 6.602-.045 1.67-.09 3.329-.369 4.988-.167.958-.68 1.503-1.595 1.793-1.785.568-3.592.579-5.388.133-.949-.233-1.506-.835-1.629-1.87-.402-3.251-.424-6.513-.391-9.776.079-6.713.168-13.427.246-20.14.011-.557 0-1.114.19-1.649.368-1.013 1.204-1.402 2.22-1.035.39.145.714.39 1.037.646 2.466 1.87 4.652 4.041 6.794 6.268 1.874 1.96 3.592 4.053 5.31 6.157.659.813.469.857 1.495.245 2.098-1.258 3.76-3.006 5.456-4.732 2.231-2.282 4.462-4.576 6.704-6.847.447-.445.926-.857 1.451-1.214 1.562-1.08 3.19.078 3.28 1.514.156 2.294.39 4.577.368 6.881-.045 6.792-.089 13.583-.123 20.364-.011 1.269-.19 2.516-.301 3.774-.067.713-.469 1.158-1.149 1.336-1.986.535-3.972.457-5.946-.077-.859-.234-1.071-.958-1.127-1.737-.156-2.105-.29-4.22-.435-6.324-.123-1.726-.234-3.452-.357-5.267-.647.134-1.082.468-1.484.835-.881.791-1.751 1.615-2.644 2.394-2.421 2.116-4.976 2.138-7.43.056-.825-.702-1.584-1.459-2.387-2.182-.435-.39-.882-.78-1.529-1.136zM244.428 107.768c.279-7.014 3.782-12.548 10.297-16.189 2.187-1.224 4.641-1.514 7.118-1.558 5.545-.1 10.464 1.458 14.559 5.333 3.268 3.095 4.964 6.869 5.042 11.367.078 4.332-.781 8.418-3.38 11.98-2.499 3.419-5.768 5.868-9.873 7.07-1.93.568-3.938.624-5.969.479-2.387-.167-4.719-.523-6.961-1.391-5.924-2.305-9.282-6.681-10.442-12.838-.234-1.247-.335-2.505-.391-4.253zM164.64 108.258c-.078-8.217 5.188-15.41 12.908-17.625 3.413-.98 6.838-.712 10.252 0 2.242.468 4.329 1.314 6.225 2.605 2.867 1.938 4.887 4.532 5.946 7.828 1.573 4.82 1.462 9.653-.279 14.396-1.461 3.997-4.25 6.914-7.909 9.029-1.596.924-3.392 1.292-5.199 1.548-3.536.512-7.039.423-10.453-.768a18.765 18.765 0 0 1-6.225-3.608c-2.879-2.494-4.474-5.667-4.987-9.419a34.06 34.06 0 0 1-.279-3.986zM147.638 126.373c-2.566-.201-4.853-.446-6.995-1.37-2.889-1.236-5.065-3.195-6.18-6.201-.446-1.203-.614-2.405.424-3.418 1.082-1.047 2.354-1.548 3.86-1.014.703.245 1.372.557 2.064.835 1.539.646 3.079 1.281 4.607 1.949 1.64.712 3.325.701 5.02.278 1.127-.278 1.964-1.08 1.942-1.881-.012-.769-.659-2.071-1.752-2.372-1.249-.345-2.488-.746-3.748-1.058-1.663-.4-3.336-.734-4.998-1.102-2.968-.646-4.965-2.55-6.493-5.044-.335-.534-.513-1.157-.558-1.792-.112-1.514-.201-3.028-.067-4.554.257-2.95 1.607-5.3 3.938-7.07 2.6-1.982 5.545-2.917 8.847-2.783 2.287.089 4.518.423 6.593 1.414 2.923 1.403 5.199 3.451 6.214 6.624.569 1.77-.379 3.363-2.131 3.73-.613.134-1.182-.033-1.751-.211-1.919-.579-3.782-1.325-5.645-2.049-.759-.29-1.517-.601-2.298-.857-1.54-.524-3.548.122-4.485 1.425-.692.946-.58 2.115.312 2.906.87.779 1.908 1.28 3.057 1.525 2.03.457 4.061.913 6.08 1.37 1.64.367 3.18 1.002 4.652 1.803 1.64.902 2.756 2.238 3.314 4.008.569 1.793.769 3.63.479 5.489-.479 3.118-2.287 5.322-4.942 6.903-2.209 1.314-4.652 1.927-7.173 2.227-.826.134-1.618.379-2.187.29zM297.899 126.195a20.4 20.4 0 0 1-5.444-.724c-2.309-.635-4.295-1.804-5.946-3.552-.881-.935-1.551-1.993-1.93-3.218-.669-2.148.703-4.164 2.956-4.375.726-.067 1.395.067 2.064.345 1.986.824 3.972 1.637 5.969 2.449 1.26.501 2.566.746 3.927.591a5.902 5.902 0 0 0 1.082-.223c1.116-.356 1.718-1.169 1.74-2.305.023-1.002-.613-1.893-1.695-2.227-1.852-.567-3.749-.901-5.645-1.28-1.306-.267-2.633-.479-3.894-.902-4.853-1.637-7.843-6.769-6.493-11.445 1.339-4.643 4.295-7.805 9.126-8.985 4.038-.991 7.887-.368 11.558 1.492 2.041 1.035 3.614 2.582 4.696 4.598.101.2.223.39.313.59.903 1.993.446 3.162-1.495 4.197-1.071.568-2.053.602-3.168.101-2.232-1.003-4.485-1.971-6.806-2.762-2.064-.712-3.971 0-5.031 1.882-.357.623-.357 1.158.123 1.726.613.723 1.283 1.28 2.231 1.57 2.521.779 5.087 1.391 7.664 1.926 2.767.579 5.02 1.948 6.883 4.041.837.936 1.306 1.949 1.261 3.218-.056 1.403.022 2.817-.145 4.22-.257 2.215-1.272 3.997-2.923 5.455-2.521 2.205-6.705 4.02-10.978 3.597zM148.163 52.221a8.435 8.435 0 0 1-.558 2.238c-.692 1.76-1.372 3.518-2.053 5.277-.089.245-.156.502-.268.724-.58 1.225-.424 2.25.636 3.173.893.78 1.674 1.682 2.499 2.539 1.328 1.358 2.332 2.872 2.566 4.82.179 1.46-.123 2.807-.837 4.065a3.5 3.5 0 0 1-1.93 1.614c-.836.29-1.684.601-2.543.824-2.51.646-4.63 1.97-6.56 3.63-1.071.913-1.752 2.082-2.164 3.44-.692 2.305-1.161 4.676-1.941 6.959-1.228 3.563-2.856 6.914-5.099 9.964-.223.312-.424.936-.814.769-.525-.223-.101-.813-.022-1.192.457-2.215.568-4.409-.123-6.602-.391-1.236-.156-2.416.323-3.574 1.361-3.251 2.711-6.502 4.061-9.742.045-.1.089-.2.134-.312.714-1.759.714-1.759-.881-2.839-.703-.479-.848-.868-.603-1.826.435-1.692 1.027-3.329 1.718-4.932 1.428-3.307 3.236-6.413 4.998-9.553 1.796-3.196 3.626-6.38 5.433-9.575.279-.49.547-.969.948-1.37.67-.679 1.272-.835 1.997-.523.77.323 1.138.947 1.083 2.004zM125.036 126.651c-10.777-.289-19.278 3.774-24.912 13.338-.234-.634.067-1.013.212-1.391 1.707-4.498 3.437-8.996 5.155-13.495.502-1.313.926-2.649 1.059-4.075.078-.857.078-1.703-.055-2.549-.179-1.114-.614-1.559-1.741-1.681-.959-.101-1.919-.223-2.889-.201-.446.011-.893 0-1.339-.044-.78-.078-1.149-.401-1.205-1.192-.123-1.514-.256-3.017-.212-4.565.357.045.38.346.514.535 1.907 2.783 4.585 4.142 7.943 4.119 1.45-.011 2.722-.668 3.993-1.291 1.473-.724 2.979-1.325 4.508-1.904 2.398-.913 4.741-.612 7.095.078.468.133.602.356.569.879-.324 4.142.122 8.217 1.104 12.248.101.367.268.701.201 1.191zM93.531 140.39c-.457-.623-.948-1.236-1.383-1.881-3.536-5.167-8.479-8.306-14.47-9.898-2.588-.691-5.22-1.114-7.853-1.581-.436-.078-.86-.179-1.462-.301 2.9-3.396 2.577-7.259 1.997-11.167.457-.078.636.267.881.456 2.31 1.871 4.708 3.619 7.43 4.866 1.183.545 2.399 1.002 3.67 1.291 2.89.679 5.367-.011 7.364-2.26 1.227-1.392 2.432-2.806 3.659-4.197.937-1.058 1.885-2.094 2.834-3.14.524-.579 1.093-1.091 1.773-1.481.313.223.157.501.145.735-.033.969-.145 1.926-.122 2.895.022 1.269-.458 2.104-1.685 2.56-.792.301-1.54.735-2.287 1.158-2.22 1.247-3.246 3.174-3.213 5.69.023 1.748.357 3.462.614 5.188a78.456 78.456 0 0 0 2.343 10.622c.111.245.19.467-.235.445z" fill="#010203"/>
    <path d="M191.013 199.478c.123.144.234.289.357.423.234.278.212.49-.1.734-1.975 1.559-5.601 1.403-7.43-.334-1.618-1.536-1.785-4.353-.38-6.312 1.596-2.238 4.931-3.04 7.375-1.782 2.643 1.358 2.967 4.788.635 6.636a6.44 6.44 0 0 0-.424.345c-.055.045-.111.111-.178.134-1.651.49-3.347.256-4.998.089-.658-.067-.982-.846-1.093-1.548-.38-2.394 1.629-4.342 3.67-3.763.368.1.736.022 1.105-.011.925-.067 1.227.256 1.082 1.18-.123.824-.458 1.603-.514 2.55 1.551-.936 1.652-2.851.358-3.886-1.116-.88-3.124-.913-4.541-.067-1.272.757-1.986 2.383-1.673 3.841.334 1.592 2.13 2.684 3.993 2.45.926-.145 1.808-.546 2.756-.679zM295.545 194.534c.692-.701 1.495-1.002 2.444-.902 1.059.123 1.74.713 1.807 1.782.078 1.291.033 2.594.045 3.886 0 .356-.134.545-.525.534a18.116 18.116 0 0 0-1.339 0c-.446.022-.58-.189-.568-.59.022-.702.011-1.414 0-2.116 0-.3-.012-.59-.045-.89-.056-.457-.279-.791-.781-.746-.424.044-.647.345-.669.757-.023.445-.012.891-.023 1.336v.557c0 1.781 0 1.759-1.807 1.692-.469-.022-.669-.145-.647-.635.033-.779.011-1.558 0-2.338 0-.256 0-.523-.045-.779-.067-.368-.312-.613-.691-.601-.38 0-.614.233-.703.601-.156.735-.056 1.481-.067 2.215-.045 1.793.268 1.504-1.529 1.526-.914.011-.914-.011-.925-.902-.012-1.447.022-2.895-.012-4.342-.011-.59.212-.835.77-.735.547.1 1.183-.29 1.618.356.111.167.256-.044.368-.1 1.495-.735 2.019-.679 3.324.434zM214.106 194.534c.669-.668 1.439-.98 2.343-.902 1.115.101 1.829.691 1.896 1.804.079 1.292.034 2.594.034 3.886 0 .367-.179.49-.547.523-1.885.167-1.874.178-1.885-1.737 0-.634-.011-1.258-.056-1.881-.022-.412-.245-.735-.692-.735-.479 0-.747.311-.758.79-.023.924-.034 1.86-.011 2.784.011.534-.09.801-.726.79-2.119-.067-1.684.279-1.729-1.659-.011-.556.011-1.113-.011-1.67-.033-.69-.301-1.046-.747-1.035-.447.011-.714.367-.748 1.069-.033.779-.011 1.558-.011 2.338 0 1.046.011.957-.982.946-1.673-.022-1.45.223-1.461-1.492-.011-1.258.011-2.516-.011-3.785-.011-.501.122-.802.68-.713.58.1 1.261-.301 1.729.367.101.145.246-.066.369-.122 1.472-.735 2.019-.668 3.324.434zM171.624 200.335c.959.089 1.818-.267 2.7.323.658.445 1.126-.078 1.059-1.114-.156-.078-.267.045-.401.078-2.042.657-3.648-.456-3.782-2.594a4.233 4.233 0 0 1 .223-1.637c.524-1.569 2.108-2.204 3.592-1.447.313.156.469.245.87 0 .413-.245 1.083-.089 1.629-.089.301 0 .335.234.335.468-.011 1.848.044 3.707-.045 5.555-.067 1.303-.825 2.005-2.108 2.194-.737.111-1.484.145-2.22-.011-.904-.178-1.64-.602-1.852-1.726zM252.204 195.648c-.022-1.014.569-1.504 1.339-1.76 1.194-.389 2.41-.378 3.614 0 .859.268 1.25.813 1.283 1.737.023.891.012 1.782.012 2.672 0 .479-.034.958.301 1.537-.96-.123-1.819.345-2.611-.301-.234-.189-.401.056-.569.156-.647.334-1.327.468-2.041.356-.982-.144-1.54-.757-1.607-1.692-.067-1.058.257-1.57 1.317-1.87.602-.179 1.227-.245 1.852-.368.212-.044.435-.078.647-.156.178-.067.301-.234.267-.434-.044-.2-.2-.312-.401-.323-.223-.011-.513-.056-.647.067-.859.768-1.819.334-2.756.379z" fill="#030303"/>
    <path d="M288.305 198.03c-.022.568-.256.857-.513 1.125-.982 1.046-3.347 1.236-4.686.4-1.405-.879-1.595-2.571-1.115-3.963.502-1.459 2.22-2.249 3.971-1.904 1.763.356 2.667 1.626 2.555 3.618-.68.179-1.394.056-2.086.078-.703.023-1.406 0-2.153 0-.089.457.044.758.39.98.346.223.759.279 1.049.034.792-.691 1.673-.301 2.588-.368zM265.725 197.396c.223 1.024.815 1.469 1.428 1.013.837-.624 1.696-.323 2.611-.39-.011.813-.48 1.28-1.071 1.57-1.261.623-2.577.701-3.86.078-1.651-.813-2.153-3.307-.96-4.821.904-1.147 2.176-1.37 3.526-1.158 1.283.2 2.142.969 2.521 2.227.033.111.056.211.078.323.19 1.046.112 1.146-.937 1.158h-3.336z" fill="#030403"/>
    <path d="M207.156 196.883c-.011 2.016-1.317 3.218-3.447 3.185-2.031-.034-3.303-1.292-3.291-3.251.011-1.982 1.361-3.218 3.469-3.185 2.053.034 3.28 1.247 3.269 3.251zM225.898 196.85c0 2.026-1.283 3.24-3.414 3.218-2.03-.023-3.324-1.27-3.324-3.218 0-1.993 1.327-3.24 3.436-3.218 2.064.023 3.302 1.225 3.302 3.218z" fill="#030303"/>
    <path d="M237.155 196.895c-.023-2.005 1.204-3.229 3.257-3.263 2.109-.033 3.47 1.203 3.492 3.162.022 1.993-1.305 3.263-3.391 3.263-2.087 0-3.347-1.192-3.358-3.162z" fill="#020303"/>
    <path d="M226.534 197.863h1.941c.246 0 .424.067.491.334.067.301.335.401.58.434.29.034.636 0 .748-.322.133-.39-.201-.535-.48-.624-.603-.189-1.227-.301-1.819-.512-.981-.334-1.271-.735-1.283-1.581 0-.846.424-1.447 1.283-1.737a5.136 5.136 0 0 1 3.169-.033c.357.111.691.278.937.567.212.257.502.535.357.88-.134.323-.524.167-.803.167-.536-.011-1.127.178-1.54-.379-.111-.144-.335-.133-.524-.133-.246 0-.469.089-.491.345-.011.189.156.323.346.379.714.2 1.439.367 2.119.634.993.379 1.361 1.114 1.138 2.116-.156.723-.647 1.169-1.316 1.391-1.116.368-2.265.412-3.392.045-.859-.29-1.349-.924-1.461-1.971z" fill="#030404"/>
    <path d="M199.592 195.469c-.926-.066-1.796.257-2.51-.467-.078-.078-.279-.056-.435-.045-.201 0-.379.067-.435.279-.056.222.1.345.29.4.703.212 1.417.412 2.12.624 1.137.345 1.45 1.381 1.104 2.405-.212.612-.692.957-1.283 1.147-1.082.345-2.187.378-3.291.044-.725-.223-1.238-.668-1.439-1.414-.089-.312-.067-.59.39-.579.447.011.893.011 1.339 0 .29-.011.491.067.591.368.078.222.279.356.502.4.346.067.725.034.848-.334.123-.378-.234-.512-.502-.601-.602-.189-1.227-.3-1.818-.512-.926-.323-1.306-.813-1.294-1.592 0-.791.49-1.447 1.338-1.726 1.049-.334 2.12-.356 3.18-.011.781.256 1.048.579 1.305 1.614zM276.591 195.469c-.948-.066-1.818.257-2.521-.467-.067-.067-.212-.056-.323-.056-.224 0-.48.022-.547.279-.078.278.167.389.379.445.603.178 1.216.3 1.819.512.602.2 1.171.457 1.361 1.169.29 1.058-.157 2.038-1.205 2.416-1.149.412-2.343.445-3.492.045-.826-.279-1.361-.858-1.383-1.882.635-.134 1.26-.033 1.863-.067.267-.011.39.134.479.357.134.3.391.445.714.434.268-.011.547-.067.636-.345.112-.323-.167-.457-.401-.568-.168-.078-.357-.089-.536-.145-.457-.134-.937-.245-1.383-.401-.926-.334-1.305-.813-1.305-1.581 0-.79.49-1.458 1.327-1.726 1.049-.334 2.12-.356 3.168-.011.714.212 1.239.635 1.35 1.592zM251.044 196.048c-.614.179-1.238.056-1.863.089-.301.012-.424-.211-.603-.4-.613-.635-1.338-.435-1.584.4a2.496 2.496 0 0 0 .067 1.637c.223.568 1.071.791 1.35.301.457-.824 1.127-.646 1.796-.668h.759c.156 1.447-.882 2.471-2.6 2.638-2.13.201-3.681-.912-3.848-2.761-.19-2.149.959-3.529 3.056-3.663 2.042-.111 3.369.802 3.47 2.427z" fill="#030403"/>
    <path d="M307.148 199.845c-.881 0-1.573-.022-2.254.011-.368.011-.535-.167-.68-.445-.168-.323-.357-.646-.48-.88-.134-.122-.201-.111-.223-.011-.48 1.793-1.908 1.292-3.213 1.314.29-.902.926-1.537 1.383-2.271.625-1.002.659-.691-.022-1.715-.402-.601-.814-1.202-1.339-1.982.871 0 1.562.011 2.254 0 .312-.011.468.145.602.39.134.267.29.512.435.79.636-.211.48-1.313 1.406-1.191.614.078 1.238.011 2.075.011-.58.835-1.026 1.537-1.551 2.194-.345.445-.401.779-.044 1.258.546.746 1.026 1.57 1.651 2.527z" fill="#030404"/>
    <path d="M191.013 199.478c-1.249.712-2.555 1.135-4.038.879-1.339-.222-2.41-.79-2.89-2.115-.502-1.403-.223-2.717.725-3.853 1.205-1.447 3.604-1.903 5.299-1.068 1.819.89 1.964 3.084.837 4.431-.312.367-.424.401-1.194.49-.133-.691.224-1.292.335-1.926.112-.613.257-1.225.391-1.804-.112-.078-.168-.145-.235-.156a3.084 3.084 0 0 0-1.294.167c-.335.123-.747-.334-1.216-.323-.703.011-1.305.234-1.807.735-.893.902-1.116 2.004-.87 3.184.212 1.069 1.483 1.57 2.599 1.103.625-.268.625-.268 1.305.033.703.312 1.384.044 2.064-.089 0 .111-.011.211-.011.312z" fill="#F5E65D"/>
    <path d="M279.202 199.845h-.335c-.792-.022-.803-.022-.814-.779a146.269 146.269 0 0 1 0-3.107c0-.345-.011-.579-.446-.757-.447-.178-.424-1.135.033-1.314.301-.122.379-.222.424-.512.212-1.436.591-1.781 2.008-1.826.19-.011.368 0 .558 0 .848.023.859.045.837.88-.012.323-.045.568-.447.635-.267.044-.513.167-.513.489 0 .423.346.29.569.312.457.034.391.379.379.657-.011.301.145.746-.401.735-.558-.011-.569.323-.558.724.011 1.002.011 2.004 0 2.995-.011.857-.011.868-.837.879-.167-.011-.312-.011-.457-.011z" fill="#030403"/>
    <path d="M259.779 195.737c0-1.114.022-2.216-.011-3.329-.011-.479.178-.624.647-.646 1.818-.1 1.818-.123 1.818 1.681 0 1.882-.022 3.774.012 5.656.011.568-.157.779-.748.757-2.075-.067-1.673.267-1.707-1.681-.022-.813-.011-1.626-.011-2.438zM233.674 195.737c0-1.114.022-2.216-.011-3.329-.011-.479.167-.624.647-.657 1.818-.1 1.818-.123 1.818 1.681 0 1.882-.022 3.774.011 5.656.011.568-.145.779-.747.757-2.086-.067-1.674.267-1.718-1.681-.011-.802 0-1.615 0-2.427z" fill="#040504"/>
    <path d="M170.307 196.906c0 .779-.011 1.558 0 2.338.011.401-.1.579-.557.612-1.897.134-1.897.145-1.897-1.726 0-1.191.022-2.371-.011-3.562-.011-.513.123-.713.68-.724 1.785-.056 1.774-.078 1.774 1.726.011.445.011.89.011 1.336z" fill="#060705"/>
    <path d="M169.036 193.376c-1.205 0-1.373-.211-1.183-1.414.045-.267.156-.4.413-.412.29-.011.591-.011.881-.011 1.138 0 1.45.423 1.149 1.537-.056.211-.178.3-.379.311-.29 0-.591-.011-.881-.011z" fill="#0C0D08"/>
    <path d="M93.531 140.39c.19-.089.168-.289.223-.456.212.256.313.545.179.879-.246-.033-.346-.2-.402-.423z" fill="#4D4B38"/>
    <path d="M80.088 119.247c-.156-.078-.212-.212-.055-.289.167-.078.3.077.379.233-.112.011-.212.034-.324.056z" fill="#C5AF3C"/>
    <path d="M79.887 33.962c-1.182 1.514-.312 3.195-.636 4.765-.702.123-1.305-.156-1.907-.4-.725-.29-1.428-.647-2.164-.892-.882-.289-1.183-.01-1.138.891.022.523.2 1.013.357 1.514.379 1.18.223 1.448-.993 1.648-.625.1-1.25.167-1.886.2-.424.023-.703.134-.78.602-.123.768-.636 1.213-1.317 1.536-1.071.501-2.13 1.047-3.213 1.537-.948.423-1.316.323-1.885-.501a8.664 8.664 0 0 1-.726-1.247c-1.238-2.661-2.465-5.311-3.692-7.972-.513-1.125-.424-1.38.692-1.87a431.938 431.938 0 0 1 3.993-1.715c.335-.145.68-.312 1.071-.2a1.116 1.116 0 0 1 .592 1.77c-.368.478-.915.746-1.417 1.069-.402.267-.815.512-1.183.823-.346.29-.424.69-.245 1.114.19.445.524.701 1.026.701.39 0 .725-.156 1.071-.267.558-.19 1.105-.434 1.707-.479.67-.044 1.082.167 1.272.668.2.546-.045.947-.48 1.247-.67.468-1.36.902-2.03 1.37-.67.467-.692.612-.402 1.28.357.802.625.991 1.35.813 1.194-.3 2.332-.768 3.447-1.27.57-.255.659-.534.424-1.29-.48-1.593-1.004-3.174-1.506-4.766-.245-.78-.502-1.559-.569-2.372-.111-1.525.893-2.304 2.343-1.792.948.334 1.796.88 2.655 1.403.435.278.881.556 1.361.746.603.233.915.044 1.038-.59.111-.546.145-1.103.2-1.66.09-.812.168-1.625.246-2.438.078-.746.468-1.325 1.004-1.803.558-.513 1.015-.501 1.562.044.312.312.558.69.792 1.069 1.205 1.87 2.298 3.808 3.603 5.623.212.3.435.6.714.846.435.378.792.3 1.105-.19 1.126-1.78.691-4.71-.97-6.123-.76-.646-1.607-1.203-2.444-1.748-.457-.3-.993-.668-.86-1.17.135-.545.804-.556 1.34-.523.96.067 1.93.145 2.89.19 1.371.078 1.382.067 1.873-1.18.302-.769.68-1.492 1.317-2.027.2-.167.412-.334.636-.445.714-.356 1.06-.156 1.07.623 0 .48-.055.969-.133 1.437-.368 2.048.267 3.73 1.863 5.043.97.802 1.986 1.559 2.978 2.35.413.322.815.656.826 1.247-.346.289-.736.322-1.16.233-1.239-.245-2.477-.478-3.715-.735-1.138-.233-1.506-.066-2.053.98-.167.323-.323.668-.48 1.002-1.004 2.138-2.677 3.519-4.908 4.242-.937.3-1.227.2-1.796-.59-.547-.768-.926-1.67-1.73-2.371zM55.456 39.907c.691.902 1.673.969 2.632.88.647-.067 1.239.044 1.93.145-.056.946-.535 1.636-1.25 2.093-.914.59-1.07 1.291-.747 2.271.246.735.335 1.514.525 2.271.1.435 0 .802-.257 1.147-.524.724-1.015.768-1.617.09a8.592 8.592 0 0 1-1.34-2.038 1052.095 1052.095 0 0 1-3.39-7.226c-.447-.958-.369-1.17.613-1.614 1.35-.613 2.7-1.214 4.06-1.793.96-.412 1.362-.312 1.696.345.38.746.157 1.258-.803 1.737-.77.39-1.617.712-2.053 1.692zM80.523 158.995c-.078.846-.1 1.703-.245 2.55-.937 5.411-5.277 9.408-10.743 10.065-3.191.378-6.225.044-9.093-1.426-2.41-1.235-4.15-3.084-5.198-5.589-2.142-5.11-1.819-10.054 1.037-14.808 1.305-2.171 3.146-3.719 5.478-4.709.915-.379 1.874-.424 2.822-.579 2.12-.368 4.206-.223 6.292.278 5.054 1.214 9.271 5.99 9.55 11.434.044.936.2 1.849.1 2.784zM174.502 165.62c-.692-.056-1.216-.056-1.729-.145-.882-.145-1.183-.501-1.093-1.359.312-3.017 1.383-5.745 3.101-8.239.468-.679.736-.69 1.339-.155.345.3.613.645.792 1.057.714 1.626 1.428 3.251 2.153 4.888.212.479.312.98.245 1.514-.189 1.537-.58 1.96-2.119 2.238-.937.167-1.886.379-2.689.201z" fill="#F7E75D"/>
    <path d="M75.358 92.147c.178.768-.056 1.303-.078 1.837-.112 2.628-.156 5.233 1.06 7.705.87 1.781 1.182 3.719.747 5.723-.123.568-.056 1.18-.067 1.77-.011.668 0 1.336 0 2.038-.747-1.114-.937-2.528-.613-4.087.39-1.903.245-3.741-.625-5.511-.658-1.347-.926-2.794-.993-4.286-.078-1.681.1-3.363.569-5.189z" fill="#9C6E25"/>
    <path d="M88.4 88.963c0 .223-.012.445-.012.668-.2.178-.022.49-.212.68-.279 2.727.458 5.343.982 7.971.435 2.205.904 4.398.814 6.669-.022.679-.502 1.347.056 2.004-.424.134-.468-.089-.49-.234-.19-1.113-.492-2.171-.313-3.362.245-1.592.123-3.229-.48-4.799-.97-2.527-1.171-5.166-1.015-7.849.022-.434.145-.868.223-1.303.134-.122.09-.323.212-.445v-.223c.212-.055.324-.01.234.223z" fill="#9D6F25"/>
    <path d="M84.16 93.461c-.111.868-.178 1.748-.346 2.605-.089.48-.111.958-.078 1.437.234 2.739.982 5.355 1.796 7.971.134.424.302.847.357 1.281.09.802.201 1.625-.234 2.383-.48.823-.658 1.714-.614 2.661a9.44 9.44 0 0 1-.078 1.859c-.502-1.191-.58-2.461-.178-3.641.78-2.26.636-4.442-.223-6.602-.58-1.459-.926-2.928-1.127-4.487-.234-1.77.111-3.43.413-5.133.022-.133.089-.267.134-.4a.713.713 0 0 0 .178.066z" fill="#9A6D24"/>
    <path d="M79.698 94.975a10.09 10.09 0 0 0 .881 3.508c.736 1.592.937 3.251.446 4.921-.29 1.002-.19 1.948.011 2.928-.524-.535-.647-1.191-.691-1.915-.078-1.303.212-2.572.245-3.853a3.706 3.706 0 0 0-.279-1.503c-.535-1.302-.97-2.638-.836-4.075.078-.122.145-.11.223-.01z" fill="#9C6E25"/>
    <path d="M79.698 94.975h-.223c-.313-1.881-.134-3.84-.893-5.656-.2-.5-.413-.99-.558-1.514.926.78 1.339 1.86 1.406 2.973.09 1.391.413 2.783.268 4.197z" fill="#91691F"/>
    <path d="m88.4 88.963-.224-.223c.19-.701.368-1.414.793-2.037-.146.768-.235 1.536-.57 2.26z" fill="#916920"/>
    <path d="M81.037 106.332c.312.378.435.813.435 1.358-.435-.423-.435-.891-.435-1.358z" fill="#9C6E25"/>
    <path d="M88.188 90.299c0-.245-.045-.512.212-.68 0 .257.033.513-.212.68zM88.176 88.952c0 .19-.033.345-.212.445-.01-.178.034-.345.212-.445z" fill="#916920"/>
    <path d="M111.827 107.222c.145-.534.301-1.057.447-1.592.502-1.948-.19-3.496-1.73-4.654-.914-.679-1.283-1.503-1.138-2.572.179-1.28.714-2.338 2.075-2.75.268-.078.525-.3.982-.11-.814.31-1.316.856-1.807 1.39-.971 1.047-.77 2.873.446 3.675.826.546 1.584 1.136 1.74 2.171.235 1.614.279 3.184-1.015 4.442z" fill="#4D3E1A"/>
    <path d="M103.895 101.934c-1.528-1.024-2.309-2.36-2.51-3.953-.178-1.402.134-2.716 1.361-3.663.424-.334.859-.69 1.06-1.258.48-1.291.056-2.639-1.149-3.518-.223-.167-.469-.29-.859-.523 1.707.323 2.51 1.191 2.666 2.705.101 1.025-.122 1.893-.97 2.572-.703.568-1.239 1.258-1.484 2.16-.48 1.77-.089 3.273 1.238 4.554.223.211.536.378.647.924z" fill="#4B3D1A"/>
    <path d="M121.544 80.434c-.045.368-.401.39-.625.535-1.026.635-1.405 1.893-.212 2.94.402.355.871.545 1.328.779 1.015.534 1.528 1.313 1.372 2.393-.145.991-.145 1.503-1.227 2.372.457-.768.681-1.57.58-2.45-.123-1.069-.502-1.96-1.629-2.26-1.428-.378-2.13-1.692-1.416-3.462.267-.635.903-.902 1.829-.847z" fill="#4D3E1A"/>
    <path d="M122.76 105.218c-1.238-.378-1.618-1.469-1.963-2.505-.592-1.77-.302-3.306 1.372-4.475 1.037-.724 1.115-2.684.256-3.485a10.249 10.249 0 0 0-1.16-.924 1.85 1.85 0 0 1 1.852 1.057c.402.869.413 1.793.201 2.706-.089.367-.324.657-.647.868-1.339.902-1.674 2.138-1.54 3.719.101 1.325.893 2.126 1.629 3.039z" fill="#4C3D1A"/>
    <path d="M106.617 87.349c-1.338-.49-1.673-.947-1.461-2.16.178-1.025.77-1.96 1.874-2.016.48-.022.96.067 1.428-.111a2.998 2.998 0 0 0 1.874-3.54c-.022-.1-.022-.212-.033-.346.413.557.558 1.67.335 2.539-.302 1.202-1.172 1.87-2.511 1.904-.557.01-1.104-.022-1.606.323-.904.623-1.127 1.414-.602 2.371.189.312.412.601.702 1.036z" fill="#4E3E1A"/>
    <path d="M115.397 89.186c-1.071-.212-1.539-.746-1.562-1.76 0-.256-.011-.512 0-.768.078-1.124.77-1.692 2.075-1.659-.312.423-.792.535-1.104.858-1.06 1.09-1.015 2.015.234 2.917.145.111.279.233.357.412z" fill="#4C3D1A"/>
    <path d="M116.29 93.64c.1-.357.212-.713.312-1.059.268-.935.268-1.826-.491-2.572a.857.857 0 0 1-.268-.59c.915.234 1.283.902 1.328 1.77.056.914-.089 1.804-.881 2.45z" fill="#4A3C1B"/>
    <path d="M111.827 107.222c-.033.557-.468.78-.881 1.025.145-.468.468-.78.881-1.025z" fill="#4D3E1A"/>
    <path d="M115.843 89.408c-.178 0-.345-.044-.446-.222.179 0 .346.044.446.222zM116.067 93.862c-.023.033-.045.089-.056.089-.067-.022-.056-.056.056-.09zM116.067 93.862l.223-.223c-.079.067-.145.145-.223.223z" fill="#4A3C1B"/>
    <path d="M122.76 105.218a.58.58 0 0 0 .089.045c-.022.078-.055.056-.089-.045z" fill="#4C3D1A"/>
    <path d="M254.19 108.392c-.167-2.539.669-4.732 2.32-6.636 2.41-2.784 6.047-3.708 9.494-2.383 1.741.668 3.146 1.815 4.34 3.207.692.801 1.06 1.781 1.227 2.817.312 1.926.268 3.83-.178 5.734-.792 3.362-3.024 5.411-6.46 5.834-1.472.178-2.956.156-4.429-.156-3.77-.791-6.292-3.841-6.314-7.66v-.757z" fill="#F7E85D"/>
    <path d="M183.048 117.276c-4.92.023-8.278-2.984-8.78-7.571-.145-1.291-.29-2.572-.056-3.874.68-3.741 4.619-7.148 8.668-6.925a17.79 17.79 0 0 1 2.655.311c1.953.423 3.47 1.459 4.485 3.196a15.163 15.163 0 0 1 1.618 3.885c.859 3.441-.748 7.605-3.671 9.631-1.573 1.102-3.369 1.292-4.919 1.347z" fill="#F7E75D"/>
    <path d="M186.584 197.162c.067-.579.223-1.136.647-1.592.201-.223.457-.379.792-.256a.683.683 0 0 1 .469.79 6.816 6.816 0 0 1-.391 1.492c-.167.423-.502.79-1.015.668-.58-.122-.502-.635-.502-1.102z" fill="#EFE05D"/>
    <path d="M175.484 196.928c-.023.111-.023.378-.101.623-.156.435-.669.646-1.104.501-.435-.144-.669-.668-.636-1.414.022-.512.145-.968.725-1.113.658-.167 1.105.334 1.116 1.403z" fill="#F3E45D"/>
    <path d="M255.964 197.262c-.067 1.047-.502 1.458-1.239 1.258-.189-.056-.323-.167-.368-.356a.436.436 0 0 1 .201-.468c.413-.245.87-.356 1.406-.434z" fill="#EDDE5D"/>
    <path d="M285.17 196.082c-.111 0-.223.011-.323 0-.201-.022-.491.111-.569-.145-.101-.323.145-.545.424-.679.312-.145.647-.145.948 0 .234.111.457.289.446.568-.022.401-.379.211-.591.256-.123.022-.234 0-.335 0zM265.692 196.015c.368-.802.87-1.058 1.439-.757.234.122.457.289.435.579-.033.401-.379.223-.602.245-.29.022-.58.011-.871 0-.111 0-.211-.034-.401-.067z" fill="#EFE05D"/>
    <path d="M202.827 196.728c.034-.19.045-.49.134-.769.123-.389.424-.579.848-.567.424.011.714.2.826.601a3.4 3.4 0 0 1 .044 1.536c-.1.512-.39.78-.915.78-.546 0-.792-.334-.881-.813-.033-.223-.033-.446-.056-.768zM221.581 196.683c.022-.167.033-.434.111-.679.134-.446.458-.646.926-.613.424.034.692.245.781.657.112.468.123.947.034 1.425-.09.502-.335.813-.871.836-.524.022-.847-.268-.948-.869-.033-.223-.022-.445-.033-.757z" fill="#F4E45D"/>
    <path d="M241.472 196.839c0 1.002-.29 1.458-.959 1.47-.659.011-.982-.468-.993-1.448-.011-.98.312-1.458.97-1.47.67-.011.971.446.982 1.448z" fill="#F1E15D"/>
</svg>
